<svg xmlns="http://www.w3.org/2000/svg" xmlns:xlink="http://www.w3.org/1999/xlink" version="1.1" id="Layer_1" x="0px" y="0px" viewBox="0 0 410 311" style="enable-background:new 0 0 410 311;" xml:space="preserve"><style type="text/css">
	.st0{clip-path:url(#SVGID_2_);}
	.st1{fill:none;stroke:#FFA600;stroke-width:4.5004;}
	.st2{fill:#E55CFF;}
</style><g><g><defs><rect id="SVGID_1_" x="53.8" y="-35.1" transform="matrix(0.7071 -0.7071 0.7071 0.7071 -85.3446 230.6999)" width="364" height="507"/></defs><clipPath id="SVGID_2_"><use xlink:href="#SVGID_1_" style="overflow:visible;"/></clipPath><g class="st0"><path class="st1" d="M262.2,91.3h0.1l0.1,0c0.1,0,0.4-0.1,0.5-0.1c0.7-0.1,1.3-0.4,2.1-0.5l54.8-10.3     c32.8-6.1,56.5,30.5,37.7,57.9c-13.2,19.1-8.3,45.2,10.9,58.3c27.4,18.8,18.4,61.5-14.3,67.6l0,0l-54.8,10.3     c-0.7,0.1-1.3,0.2-2,0.3c-0.1,0-0.4,0.1-0.5,0.1h-0.1h-0.1c-0.1,0-0.4,0.1-0.5,0.1c-0.7,0.1-1.3,0.4-2.1,0.5l-54.8,10.3     c-32.8,6.1-56.5-30.5-37.7-57.9c13.2-19.1,8.3-45.2-10.9-58.3c-27.5-18.9-18.4-61.5,14.3-67.6l54.8-10.3c0.7-0.1,1.3-0.2,2-0.3     C261.9,91.2,262.1,91.3,262.2,91.3z"/><path class="st2" d="M253.4,66.4c-1.3,16.8,5.6,33,18.5,43.6c32.7,26.6,20.6,79.2-20.4,89.1c-16.3,4-29.6,15.6-35.6,31.3     c-15.2,39.4-68.9,44.4-90.9,8.4c-8.8-14.3-23.9-23.3-40.6-24.2c-42.1-2.2-63.2-51.8-35.8-83.9c10.9-12.7,14.9-30.1,10.6-46.2     C48.5,43.6,89.2,8.1,128,24.2c15.5,6.4,33.1,4.8,47.1-4.4C210.6-3.2,256.8,24.4,253.4,66.4z"/></g></g></g></svg>