<svg xmlns="http://www.w3.org/2000/svg" viewBox="0 0 454 351" fill="none"><g clip-path="url(#clip0)"><path d="M177.067 235.522L177.074 235.537L177.081 235.551L214.891 311.088C214.893 311.093 214.896 311.097 214.898 311.102C220.929 322.827 232.414 330.49 245.467 331.497L329.165 337.019C341.943 337.856 354.331 331.792 361.499 320.851L407.391 250.809C414.379 240.143 415.07 226.267 409.297 214.718L371.487 139.182C371.485 139.178 371.483 139.173 371.481 139.169C365.45 127.443 353.964 119.78 340.91 118.773C340.905 118.773 340.901 118.772 340.896 118.772L257.213 113.251C257.213 113.251 257.212 113.251 257.212 113.251C244.434 112.415 232.047 118.479 224.879 129.419L179.16 199.198C171.971 210.17 171.073 223.858 177.067 235.522Z" stroke="#0AE8F0" stroke-width="6"/><path d="M142.08 341.24C176.631 347.522 213.094 317.673 238.004 268.443C292.852 262.458 333.628 238.838 339.91 204.287C346.193 169.737 316.344 133.274 267.113 108.364C261.129 53.5156 237.509 12.7404 202.958 6.4576C168.408 0.174796 131.945 30.0243 107.035 79.2546C52.1864 85.2389 11.3932 108.871 5.12839 143.41C-1.15441 177.96 28.6951 214.423 77.9254 239.333C83.9097 294.182 107.53 334.957 142.08 341.24Z" fill="#8247F5"/></g><defs><clipPath id="clip0"><rect width="454" height="351" fill="white"/></clipPath></defs></svg>