<svg xmlns="http://www.w3.org/2000/svg" viewBox="0 0 427 409" fill="none"><g clip-path="url(#clip0)"><path d="M52.8736 123.808C59.8983 148.844 54.1735 175.672 37.5445 195.582C-4.29557 245.722 29.6374 322.263 94.983 325.08C120.924 326.187 144.697 340.023 158.534 362.028C193.418 417.457 276.552 409.002 299.248 347.726C308.273 323.394 328.682 305.099 353.852 298.777C417.234 282.888 434.693 201.125 383.389 160.457C363.022 144.306 351.856 119.168 353.58 93.2607C357.895 27.9968 285.504 -14.0684 231.107 22.0637C209.504 36.426 182.192 39.173 158.09 29.4867C97.3718 5.05081 35.1941 60.7898 52.8736 123.808Z" fill="#BFB0FF"/><mask id="mask0" mask-type="alpha" maskUnits="userSpaceOnUse" x="19" y="8" width="395" height="392"><path d="M52.8736 123.808C59.8983 148.844 54.1735 175.672 37.5445 195.582C-4.29557 245.722 29.6374 322.263 94.983 325.08C120.924 326.187 144.697 340.023 158.534 362.028C193.418 417.457 276.552 409.002 299.248 347.726C308.273 323.394 328.682 305.099 353.852 298.777C417.234 282.888 434.693 201.125 383.389 160.457C363.022 144.306 351.856 119.168 353.58 93.2607C357.895 27.9968 285.504 -14.0684 231.107 22.0637C209.504 36.426 182.192 39.173 158.09 29.4867C97.3718 5.05081 35.1941 60.7898 52.8736 123.808Z" fill="#006BFF"/></mask><g mask="url(#mask0)"><path d="M480.83 92.4207L523.148 301.623C525.536 313.426 518.518 324.958 507.473 327.384L291.882 374.732C280.836 377.158 269.949 369.558 267.561 357.755L225.243 148.553C209.987 73.1353 254.834 -0.566446 325.413 -16.0673C395.99 -31.5676 465.573 17.0026 480.83 92.4207Z" stroke="white" stroke-width="1.0132" stroke-miterlimit="10" stroke-dasharray="2.1 2.1"/><path d="M475.904 95.5458L516.46 296.034C518.748 307.345 512.021 318.4 501.436 320.724L294.824 366.101C284.239 368.426 273.803 361.14 271.515 349.83L230.959 149.341C216.338 77.0652 259.318 6.43147 326.957 -8.42362C394.599 -23.2793 461.283 23.2697 475.904 95.5458Z" stroke="white" stroke-width="1.0132" stroke-miterlimit="10" stroke-dasharray="2.13 2.13"/><path d="M470.975 98.6738L509.769 290.449C511.957 301.267 505.523 311.841 495.399 314.064L297.768 357.469C287.644 359.692 277.661 352.724 275.473 341.906L236.679 150.13C222.694 80.9963 263.807 13.4306 328.506 -0.778667C393.205 -14.988 456.991 29.5396 470.975 98.6738Z" stroke="white" stroke-width="1.0132" stroke-miterlimit="10" stroke-dasharray="2.1 2.1"/><path d="M466.048 101.8L503.079 284.864C505.168 295.193 499.027 305.285 489.361 307.408L300.708 348.841C291.042 350.964 281.514 344.312 279.425 333.984L242.393 150.919C229.043 84.9242 268.288 20.4298 330.049 6.86571C391.81 -6.69565 452.698 35.8073 466.048 101.8Z" stroke="white" stroke-width="1.0132" stroke-miterlimit="10" stroke-dasharray="2.14 2.14"/><path d="M461.123 104.927L496.392 279.278C498.381 289.114 492.532 298.726 483.328 300.748L303.653 340.208C294.448 342.23 285.373 335.896 283.384 326.06L248.115 151.708C235.4 88.8553 272.778 27.429 331.599 14.5106C390.419 1.59229 448.408 42.0739 461.123 104.927Z" stroke="white" stroke-width="1.0132" stroke-miterlimit="10" stroke-dasharray="2.1 2.1"/><path d="M456.197 108.054L489.703 273.693C491.594 283.036 486.038 292.17 477.291 294.091L306.595 331.58C297.851 333.5 289.228 327.483 287.337 318.137L253.831 152.499C241.752 92.7876 277.26 34.4326 333.143 22.1595C389.025 9.88359 444.118 48.3406 456.197 108.054Z" stroke="white" stroke-width="1.0132" stroke-miterlimit="10" stroke-dasharray="2.14 2.14"/><path d="M451.272 111.18L483.016 268.105C484.807 276.958 479.543 285.608 471.257 287.428L309.541 322.944C301.256 324.764 293.089 319.064 291.298 310.21L259.555 153.285C248.111 96.7133 281.753 41.4291 334.693 29.8023C387.635 18.1749 439.828 54.6079 451.272 111.18Z" stroke="white" stroke-width="1.0132" stroke-miterlimit="10" stroke-dasharray="2.1 2.1"/><path d="M446.345 114.307L476.326 262.519C478.018 270.88 473.045 279.053 465.22 280.771L312.482 314.316C304.658 316.034 296.942 310.649 295.251 302.287L265.27 154.076C254.461 100.646 286.234 48.4299 336.236 37.4484C386.241 26.4662 435.537 60.8774 446.345 114.307Z" stroke="white" stroke-width="1.0132" stroke-miterlimit="10" stroke-dasharray="2.15 2.15"/><path d="M441.419 117.432L469.638 256.933C471.229 264.802 466.549 272.494 459.185 274.111L315.426 305.684C308.062 307.301 300.801 302.232 299.209 294.363L270.99 154.862C260.817 104.572 290.723 55.4267 337.785 45.0909C384.846 34.7551 431.246 67.1443 441.419 117.432Z" stroke="white" stroke-width="1.0132" stroke-miterlimit="10" stroke-dasharray="2.1 2.1"/><path d="M436.494 120.561L462.95 251.348C464.443 258.727 460.055 265.938 453.15 267.455L318.368 297.056C311.463 298.572 304.655 293.82 303.163 286.441L276.706 155.654C267.169 108.505 295.206 62.4283 339.329 52.7378C383.456 43.0466 426.956 73.4119 436.494 120.561Z" stroke="white" stroke-width="1.0132" stroke-miterlimit="10" stroke-dasharray="2.15 2.15"/><path d="M431.568 123.688L456.262 245.762C457.655 252.649 453.56 259.378 447.116 260.794L321.312 288.423C314.868 289.838 308.514 285.403 307.121 278.517L282.427 156.443C273.525 112.436 299.696 69.4275 340.879 60.3827C382.062 51.3378 422.666 79.6784 431.568 123.688Z" stroke="white" stroke-width="1.0132" stroke-miterlimit="10" stroke-dasharray="2.1 2.1"/><path d="M426.641 126.814L449.573 240.174C450.866 246.568 447.064 252.82 441.078 254.135L324.256 279.792C318.272 281.106 312.37 276.988 311.076 270.591L288.145 157.231C279.878 116.363 304.179 76.426 342.425 68.0264C380.668 59.6273 418.375 85.9488 426.641 126.814Z" stroke="white" stroke-width="1.0132" stroke-miterlimit="10" stroke-dasharray="2.16 2.16"/><path d="M421.716 129.941L442.884 234.589C444.079 240.493 440.567 246.262 435.044 247.474L327.199 271.159C321.674 272.373 316.228 268.569 315.034 262.668L293.865 158.02C286.234 120.294 308.669 83.4253 343.974 75.6715C379.277 67.9183 414.084 92.2156 421.716 129.941Z" stroke="white" stroke-width="1.0132" stroke-miterlimit="10" stroke-dasharray="2.1 2.1"/><path d="M416.786 133.066L436.193 229.003C437.287 234.415 434.068 239.705 429.004 240.817L330.138 262.531C325.073 263.643 320.079 260.157 318.984 254.745L299.577 158.808C292.581 124.224 313.147 90.4236 345.514 83.315C377.882 76.2091 409.79 98.4824 416.786 133.066Z" stroke="white" stroke-width="1.0132" stroke-miterlimit="10" stroke-dasharray="2.17 2.17"/><path d="M411.861 136.194L429.505 223.418C430.501 228.34 427.574 233.146 422.971 234.157L333.083 253.899C328.476 254.91 323.939 251.74 322.944 246.821L305.299 159.597C298.939 128.153 317.637 97.423 347.064 90.9601C376.491 84.4973 405.501 104.749 411.861 136.194Z" stroke="white" stroke-width="1.0132" stroke-miterlimit="10" stroke-dasharray="2.1 2.1"/><path d="M406.935 139.322L422.817 217.832C423.713 222.262 421.079 226.59 416.934 227.501L336.027 245.269C331.882 246.18 327.795 243.327 326.899 238.898L311.018 160.387C305.292 132.085 322.122 104.424 348.611 98.606C375.098 92.789 401.21 111.016 406.935 139.322Z" stroke="white" stroke-width="1.0132" stroke-miterlimit="10" stroke-dasharray="2.19 2.19"/><path d="M402.008 142.447L416.127 212.244C416.924 216.181 414.583 220.029 410.898 220.838L338.97 236.635C335.285 237.444 331.653 234.909 330.856 230.972L316.737 161.175C311.647 136.011 326.611 111.424 350.157 106.252C373.703 101.081 396.919 117.287 402.008 142.447Z" stroke="white" stroke-width="1.0132" stroke-miterlimit="10" stroke-dasharray="2.1 2.1"/><path d="M397.083 145.574L409.439 206.658C410.136 210.103 408.088 213.472 404.862 214.18L341.911 228.006C338.685 228.714 335.507 226.496 334.81 223.048L322.453 161.964C317.999 139.943 331.093 118.424 351.701 113.898C372.312 109.368 392.628 123.553 397.083 145.574Z" stroke="white" stroke-width="1.0132" stroke-miterlimit="10" stroke-dasharray="2.21 2.21"/><path d="M392.156 148.699L402.75 201.073C403.348 204.027 401.59 206.914 398.827 207.52L344.855 219.374C342.089 219.981 339.365 218.077 338.767 215.125L328.173 162.751C324.354 143.872 335.581 125.421 353.249 121.541C370.917 117.66 388.337 129.82 392.156 148.699Z" stroke="white" stroke-width="1.0132" stroke-miterlimit="10" stroke-dasharray="2.11 2.11"/><path d="M387.231 151.827L396.062 195.487C396.561 197.95 395.095 200.357 392.791 200.864L347.799 210.745C345.495 211.251 343.222 209.664 342.724 207.202L333.892 163.541C330.708 147.801 340.069 132.421 354.796 129.186C369.524 125.952 384.047 136.087 387.231 151.827Z" stroke="white" stroke-width="1.0132" stroke-miterlimit="10" stroke-dasharray="1.97 1.97"/><path d="M382.304 154.952L389.374 189.899C389.773 191.871 388.6 193.796 386.756 194.201L350.74 202.11C348.894 202.516 347.077 201.245 346.679 199.276L339.609 164.329C337.061 151.731 344.553 139.419 356.343 136.83C368.133 134.24 379.756 142.354 382.304 154.952Z" stroke="white" stroke-width="1.0132" stroke-miterlimit="10" stroke-dasharray="2.11 2.11"/><path d="M377.379 158.08L382.685 184.314C382.985 185.794 382.105 187.24 380.72 187.544L353.685 193.482C352.299 193.786 350.934 192.833 350.635 191.353L345.328 165.119C343.415 155.663 349.04 146.419 357.89 144.476C366.739 142.532 375.466 148.624 377.379 158.08Z" stroke="white" stroke-width="1.0132" stroke-miterlimit="10" stroke-dasharray="1.9 1.9"/><path d="M372.452 161.208L375.997 178.728C376.196 179.715 375.61 180.683 374.685 180.886L356.628 184.852C355.704 185.055 354.79 184.42 354.59 183.429L351.046 165.909C349.768 159.592 353.524 153.42 359.436 152.121C365.347 150.823 371.175 154.891 372.452 161.208Z" stroke="white" stroke-width="1.0132" stroke-miterlimit="10" stroke-dasharray="2.11 2.11"/></g></g><defs><clipPath id="clip0"><rect width="427" height="409" fill="white"/></clipPath></defs></svg>